<?xml version="1.0" encoding="UTF-8"?>
<svg version="1.1" xmlns="http://www.w3.org/2000/svg" width="1046" height="236">
<path d="M0 0 C0 0.66 0 1.32 0 2 C0.53625 2.21140625 1.0725 2.4228125 1.625 2.640625 C4.90220124 4.5163915 7.37108431 7.08204101 10 9.75 C10.78117187 10.51957031 10.78117187 10.51957031 11.578125 11.3046875 C19.23337007 18.99859542 24.37439424 28.49757697 27 39 C27.33 39.66 27.66 40.32 28 41 C32.0598997 63.3016408 30.09653224 89.35735517 18 109 C17.00868977 110.0086149 16.00958181 111.00967452 15 112 C14.54625 112.94875 14.0925 113.8975 13.625 114.875 C10.41104741 121.05567806 4.54914492 125.24059072 -0.59765625 129.81640625 C-2.13512648 131.21387919 -3.64176984 132.64653251 -5.10546875 134.12109375 C-17.19327478 146.10920654 -35.01397566 149.78533062 -51.5 150.3125 C-69.08541602 149.88048833 -86.30490055 142.42086613 -98.828125 130.21875 C-100.33292566 128.53970927 -101.6759514 126.8248349 -103 125 C-103.58394531 124.20464844 -104.16789063 123.40929687 -104.76953125 122.58984375 C-111.23904352 113.55976662 -114.92690553 105.67647844 -118 95 C-118.33 94.01 -118.66 93.02 -119 92 C-121.75017563 74.95570165 -121.44402687 55.38763189 -116 39 C-115.59653095 37.62722116 -115.19973396 36.25244651 -114.8125 34.875 C-114.544375 33.92625 -114.27625 32.9775 -114 32 C-113.34 32 -112.68 32 -112 32 C-111.8865625 31.26136719 -111.773125 30.52273437 -111.65625 29.76171875 C-108.51258169 16.53211461 -93.94227332 5.08422582 -83 -2 C-78.48023206 -4.65127407 -73.78816753 -6.87324569 -69 -9 C-68.24976563 -9.33773437 -67.49953125 -9.67546875 -66.7265625 -10.0234375 C-45.33285815 -18.84288297 -18.66064881 -12.855905 0 0 Z M-61 25 C-61.60070312 25.46277344 -62.20140625 25.92554688 -62.8203125 26.40234375 C-68.28947693 31.24409322 -71.07765196 37.41631937 -74 44 C-74.51409424 45.03084717 -75.02818848 46.06169434 -75.55786133 47.1237793 C-77.39051786 51.43081476 -77.45042584 55.45233958 -77.43359375 60.08203125 C-77.4388356 60.93625168 -77.44407745 61.79047211 -77.44947815 62.670578 C-77.45587218 64.46990884 -77.45459545 66.26928163 -77.44604492 68.06860352 C-77.43755588 70.79455624 -77.46629779 73.51839546 -77.49804688 76.24414062 C-77.55496557 89.77373083 -76.04372511 98.7703948 -66.3671875 108.859375 C-62.05333795 112.76034786 -58.27920143 114.62703977 -52.5625 115.5625 C-42.16313197 113.92049452 -32.24137206 105.42107778 -26.125 97.1875 C-19.27687843 87.46592038 -18.40645703 77.45777759 -18.625 65.875 C-18.62693359 63.91626953 -18.62693359 63.91626953 -18.62890625 61.91796875 C-18.75092254 48.50973387 -20.89355334 35.92036429 -30.625 25.875 C-36.29871579 20.52093017 -41.71914005 20.48469064 -49.296875 20.69140625 C-54.09163229 21.09096936 -57.21056913 22.07497847 -61 25 Z " fill="#FEFEFE" transform="translate(717,73)"/>
<path d="M0 0 C1.30750969 -0.0149778 1.30750969 -0.0149778 2.64143372 -0.03025818 C4.47941374 -0.0453814 6.3174754 -0.05248578 8.15551758 -0.05200195 C10.93257518 -0.05853621 13.70599985 -0.11299869 16.48242188 -0.16992188 C27.10298174 -0.27011527 34.75873088 0.40864737 43.76953125 6.50390625 C44.48141602 6.95258057 45.19330078 7.40125488 45.92675781 7.86352539 C49.19177462 10.03197517 51.70464699 12.17848219 53.76953125 15.50390625 C54.58480496 20.08706658 54.57363593 24.17404082 52.14453125 28.19140625 C47.68947791 30.65340941 42.19436216 28.18381432 37.45703125 27.00390625 C36.40902344 26.74609375 35.36101562 26.48828125 34.28125 26.22265625 C31.76953125 25.50390625 31.76953125 25.50390625 30.76953125 24.50390625 C17.77663331 22.26135981 7.97155137 29.45065777 -2.23046875 36.50390625 C-9.74441863 42.23147874 -15.3679776 48.3612195 -18.23046875 57.50390625 C-18.66839861 61.21471485 -18.61542483 64.83694696 -18.48046875 68.56640625 C-18.46242187 69.52740234 -18.444375 70.48839844 -18.42578125 71.47851562 C-18.37915671 73.82139852 -18.31375044 76.16208915 -18.23046875 78.50390625 C-17.44671875 78.60703125 -16.66296875 78.71015625 -15.85546875 78.81640625 C-13.23046875 79.50390625 -13.23046875 79.50390625 -11.23046875 82.50390625 C-8.80581304 83.60968079 -8.80581304 83.60968079 -5.91796875 84.44140625 C-4.8403125 84.78171875 -3.76265625 85.12203125 -2.65234375 85.47265625 C-0.41503409 86.14691395 1.82448549 86.81389281 4.06640625 87.47265625 C18.72828331 91.8221126 34.87315066 98.63861503 46.76953125 108.50390625 C46.76953125 109.16390625 46.76953125 109.82390625 46.76953125 110.50390625 C47.35863281 110.76558594 47.94773437 111.02726562 48.5546875 111.296875 C50.88738559 112.56813375 52.37307493 113.90621156 54.20703125 115.81640625 C54.76261719 116.39003906 55.31820312 116.96367188 55.890625 117.5546875 C56.51066406 118.19792969 57.13070312 118.84117188 57.76953125 119.50390625 C59.03023437 120.66019531 59.03023437 120.66019531 60.31640625 121.83984375 C67.67428637 129.83040783 68.31304624 140.51839267 68.04296875 150.8125 C67.55659777 157.37850821 66.54984998 162.51552744 63.76953125 168.50390625 C63.31578125 169.61765625 62.86203125 170.73140625 62.39453125 171.87890625 C60.43839216 176.24260115 58.14750514 180.35890038 55.76953125 184.50390625 C55.10953125 184.50390625 54.44953125 184.50390625 53.76953125 184.50390625 C53.43953125 185.49390625 53.10953125 186.48390625 52.76953125 187.50390625 C52.10953125 187.50390625 51.44953125 187.50390625 50.76953125 187.50390625 C50.54265625 188.06078125 50.31578125 188.61765625 50.08203125 189.19140625 C48.39403089 192.16550213 46.30276608 194.2239949 43.76953125 196.50390625 C43.10953125 196.50390625 42.44953125 196.50390625 41.76953125 196.50390625 C41.76953125 197.16390625 41.76953125 197.82390625 41.76953125 198.50390625 C41.10953125 198.50390625 40.44953125 198.50390625 39.76953125 198.50390625 C39.76953125 199.16390625 39.76953125 199.82390625 39.76953125 200.50390625 C38.30859375 201.79296875 38.30859375 201.79296875 36.39453125 203.12890625 C35.76804687 203.57492188 35.1415625 204.0209375 34.49609375 204.48046875 C32.76953125 205.50390625 32.76953125 205.50390625 30.76953125 205.50390625 C30.76953125 206.16390625 30.76953125 206.82390625 30.76953125 207.50390625 C28.56236662 208.7768053 26.3538564 210.04726675 24.14453125 211.31640625 C23.52707031 211.67283203 22.90960938 212.02925781 22.2734375 212.39648438 C15.86555595 216.07258484 9.99766856 218.88380651 2.76953125 220.50390625 C2.76953125 221.16390625 2.76953125 221.82390625 2.76953125 222.50390625 C-9.44046875 222.50390625 -21.65046875 222.50390625 -34.23046875 222.50390625 C-34.23046875 221.84390625 -34.23046875 221.18390625 -34.23046875 220.50390625 C-35.30296875 220.21515625 -36.37546875 219.92640625 -37.48046875 219.62890625 C-43.04865057 217.9584517 -43.04865057 217.9584517 -45.23046875 216.50390625 C-45.46894531 215.90835938 -45.70742188 215.3128125 -45.953125 214.69921875 C-47.79103317 211.54048972 -50.29708678 210.20606495 -53.35546875 208.25390625 C-54.45117188 207.5475 -55.546875 206.84109375 -56.67578125 206.11328125 C-57.94035156 205.31664062 -57.94035156 205.31664062 -59.23046875 204.50390625 C-58.48046875 199.75390625 -58.48046875 199.75390625 -56.23046875 197.50390625 C-56.97296875 196.94703125 -56.97296875 196.94703125 -57.73046875 196.37890625 C-59.82802389 193.75696232 -59.4479071 191.76548153 -59.23046875 188.50390625 C-56.953125 187.8203125 -56.953125 187.8203125 -54.23046875 187.50390625 C-52.4765625 188.71875 -52.4765625 188.71875 -50.66796875 190.44140625 C-43.93268106 195.27990971 -35.40929116 194.7132646 -27.46142578 193.91894531 C-22.50992398 192.99778608 -19.40659433 190.22132642 -16.23046875 186.50390625 C-14.71484375 184.78515625 -14.71484375 184.78515625 -13.23046875 183.50390625 C-10.04296875 183.31640625 -10.04296875 183.31640625 -7.23046875 183.50390625 C-7.02421875 182.61703125 -6.81796875 181.73015625 -6.60546875 180.81640625 C-5.17016325 177.35862481 -3.7919167 176.18938615 -0.87890625 173.97265625 C2.40326555 171.04825674 4.53176238 167.24822937 6.76953125 163.50390625 C7.17558594 162.84132812 7.58164063 162.17875 8 161.49609375 C11.52981682 155.20104138 12.59499738 148.92369451 10.89453125 141.87890625 C4.28225539 131.37705636 -5.60329153 127.29003562 -16.89453125 123.62109375 C-44.72633271 114.30037335 -44.72633271 114.30037335 -49.5859375 106.26171875 C-49.79863281 105.68164062 -50.01132812 105.1015625 -50.23046875 104.50390625 C-50.89046875 104.50390625 -51.55046875 104.50390625 -52.23046875 104.50390625 C-53.56981591 101.54825917 -54.90091122 98.58896845 -56.23046875 95.62890625 C-56.61203125 94.78714844 -56.99359375 93.94539063 -57.38671875 93.078125 C-57.74765625 92.27246094 -58.10859375 91.46679688 -58.48046875 90.63671875 C-58.815625 89.89309082 -59.15078125 89.14946289 -59.49609375 88.38330078 C-60.23046875 86.50390625 -60.23046875 86.50390625 -60.23046875 84.50390625 C-60.89046875 84.50390625 -61.55046875 84.50390625 -62.23046875 84.50390625 C-62.23046875 72.62390625 -62.23046875 60.74390625 -62.23046875 48.50390625 C-61.57046875 48.50390625 -60.91046875 48.50390625 -60.23046875 48.50390625 C-60.06546875 47.45203125 -59.90046875 46.40015625 -59.73046875 45.31640625 C-55.87724393 30.35217013 -42.87311785 17.61881069 -29.9609375 9.9609375 C-25.48094366 7.57032562 -20.90703841 5.47725645 -16.23046875 3.50390625 C-15.21009521 2.99577393 -14.18972168 2.4876416 -13.13842773 1.96411133 C-8.78211158 0.10674524 -4.68584898 0.0190068 0 0 Z " fill="#FEFEFE" transform="translate(73.23046875,6.49609375)"/>
<path d="M0 0 C1.30646484 -0.03287109 2.61292969 -0.06574219 3.95898438 -0.09960938 C15.0624718 -0.1610781 23.0979314 2.66256399 31.0625 10.4375 C32.43071051 12.41380407 33.77201192 14.40959016 35.0625 16.4375 C35.7225 16.7675 36.3825 17.0975 37.0625 17.4375 C41.35099968 27.62268675 41.35278909 38.64222652 41.25 49.5 C41.2490332 51.44616211 41.2490332 51.44616211 41.24804688 53.43164062 C41.2239357 58.71734569 41.14311114 63.91231369 40.55810547 69.16723633 C39.96910371 74.75884091 39.93579889 80.29602101 39.96484375 85.9140625 C39.9662587 86.96532318 39.96767365 88.01658386 39.96913147 89.09970093 C39.97467913 92.42066428 39.98722158 95.74155741 40 99.0625 C40.00502177 101.3294261 40.00958349 103.59635327 40.01367188 105.86328125 C40.02463135 111.38804434 40.04131643 116.91276715 40.0625 122.4375 C40.84625 121.6125 41.63 120.7875 42.4375 119.9375 C45.0625 117.4375 45.0625 117.4375 47.0625 117.4375 C47.5575 115.9525 47.5575 115.9525 48.0625 114.4375 C50.0625 113.10416667 52.0625 111.77083333 54.0625 110.4375 C54.5575 108.9525 54.5575 108.9525 55.0625 107.4375 C60.8125 106.3125 60.8125 106.3125 63.0625 107.4375 C65.02251154 115.93920611 65.03702609 125.21381024 62.0625 133.4375 C61.93875 134.159375 61.815 134.88125 61.6875 135.625 C60.79331385 138.21813983 59.01595227 139.54150221 57.0625 141.4375 C56.63582031 142.21867188 56.20914063 142.99984375 55.76953125 143.8046875 C53.75868499 146.90608425 51.64253798 148.50821962 48.625 150.625 C47.67753906 151.29917969 46.73007812 151.97335938 45.75390625 152.66796875 C38.92093664 157.16047271 33.18926458 157.03123622 25.0625 156.4375 C16.53895372 154.58203414 11.46416329 146.71090145 6.0625 140.4375 C2.52267955 142.43097783 -0.35686389 144.59542164 -3.3125 147.375 C-12.65147073 155.78932016 -21.9480521 159.05195676 -34.515625 158.71484375 C-45.92285382 157.79028525 -55.54094953 152.41837757 -63.3125 144.0625 C-69.16955196 136.96668756 -72.74965759 130.72847478 -72.9375 121.4375 C-72.96457031 120.41269531 -72.99164063 119.38789063 -73.01953125 118.33203125 C-73.26333592 99.4260875 -73.26333592 99.4260875 -68.9375 91.4375 C-68.43992188 90.49648437 -67.94234375 89.55546875 -67.4296875 88.5859375 C-58.25500137 72.00567512 -40.89896645 60.05141501 -22.6875 54.8125 C-21.87796875 54.59335938 -21.0684375 54.37421875 -20.234375 54.1484375 C-17.29281934 53.23795599 -14.74014798 51.86514032 -12.03125 50.421875 C-8.16861713 48.60586104 -4.04806147 47.54937318 0.0625 46.4375 C1.11869003 42.15452469 1.17952092 38.00764354 1.125 33.625 C1.12048828 32.93212891 1.11597656 32.23925781 1.11132812 31.52539062 C1.09963156 29.82938932 1.08169924 28.13343297 1.0625 26.4375 C-12.57063236 27.28682511 -24.86682176 29.77098012 -37.8984375 33.82568359 C-41.97345738 35.04838472 -45.81357187 35.60953802 -50.0625 35.6875 C-50.91070312 35.71328125 -51.75890625 35.7390625 -52.6328125 35.765625 C-54.9375 35.4375 -54.9375 35.4375 -56.75390625 34.0390625 C-57.9375 32.4375 -57.9375 32.4375 -57.75 30.5625 C-57.481875 29.86125 -57.21375 29.16 -56.9375 28.4375 C-56.65132812 27.65890625 -56.36515625 26.8803125 -56.0703125 26.078125 C-51.21990091 14.77164834 -41.29733818 9.02663492 -30.3125 4.625 C-20.16949344 0.80507594 -10.81212036 0.04786477 0 0 Z M-8.6875 79 C-9.40252686 79.35989014 -10.11755371 79.71978027 -10.85424805 80.09057617 C-16.23045267 82.88316302 -20.72759973 86.04987307 -24.9375 90.4375 C-25.453125 90.90285156 -25.96875 91.36820313 -26.5 91.84765625 C-31.73088573 97.63290215 -32.32110546 105.80933655 -32.375 113.25 C-32.38490967 113.96687988 -32.39481934 114.68375977 -32.4050293 115.42236328 C-32.32866552 120.14153495 -31.33240887 123.39092984 -28.9375 127.4375 C-22.149996 128.20268834 -17.72841896 127.56289572 -12.2421875 123.39453125 C-11.48164063 122.74871094 -10.72109375 122.10289062 -9.9375 121.4375 C-9.05320312 120.69886719 -8.16890625 119.96023437 -7.2578125 119.19921875 C-0.08835218 112.68436132 2.60317184 106.90376542 3.29199219 97.20678711 C3.35570831 93.88203102 3.32595245 90.57438034 3.25 87.25 C3.23646484 86.10724609 3.22292969 84.96449219 3.20898438 83.78710938 C3.1740423 81.00339037 3.12499011 78.22071336 3.0625 75.4375 C-1.60819561 75.4375 -4.62939158 76.9402487 -8.6875 79 Z " fill="#FEFEFE" transform="translate(225.9375,62.5625)"/>
<path d="M0 0 C1.89878906 -0.02126953 1.89878906 -0.02126953 3.8359375 -0.04296875 C10.7595258 0.37815672 16.7430523 2.59953487 22.5 6.4375 C24.44497224 9.46301238 24.08559757 11.67544349 23.625 15.1875 C22.54108107 17.33872607 21.29990546 19.26835511 19.9375 21.25390625 C18.22833427 23.77187363 16.92883811 26.44257766 15.625 29.1875 C14.965 29.1875 14.305 29.1875 13.625 29.1875 C13.46451172 30.04214844 13.46451172 30.04214844 13.30078125 30.9140625 C12.52228964 33.53303429 11.36681162 35.31956931 9.8125 37.5625 C9.26851562 38.3565625 8.72453125 39.150625 8.1640625 39.96875 C7.40222656 41.06703125 7.40222656 41.06703125 6.625 42.1875 C3.47249688 46.86540786 0.44483675 51.61435827 -2.57421875 56.37890625 C-4.20480151 58.92204943 -5.87205475 61.43392918 -7.5625 63.9375 C-8.50072405 65.35368725 -9.43826874 66.77032491 -10.375 68.1875 C-10.81457031 68.826875 -11.25414062 69.46625 -11.70703125 70.125 C-13.99271085 73.63867269 -13.99271085 73.63867269 -13.875 77.6875 C-13.38 78.5125 -12.885 79.3375 -12.375 80.1875 C-8.375 87.08975564 -8.375 87.08975564 -8.375 89.1875 C-7.715 89.1875 -7.055 89.1875 -6.375 89.1875 C-5.9625 90.05375 -5.55 90.92 -5.125 91.8125 C-1.47353931 98.85460276 3.4405444 105.01609448 8.23828125 111.30078125 C15.625 121.03365385 15.625 121.03365385 15.625 124.1875 C16.285 124.1875 16.945 124.1875 17.625 124.1875 C23.05391199 133.00948198 24.44798023 139.88500675 23.625 150.1875 C22.635 150.5175 21.645 150.8475 20.625 151.1875 C20.625 152.5075 20.625 153.8275 20.625 155.1875 C17.38827235 159.54629324 11.59655819 161.48376376 6.625 163.1875 C-1.07670365 163.1875 -7.50545916 159.82312077 -13.078125 154.71484375 C-18.51136295 148.73643396 -22.89290227 141.88913371 -27.375 135.1875 C-27.84244629 134.49446777 -28.30989258 133.80143555 -28.79150391 133.08740234 C-30.08047792 131.16952437 -31.35635571 129.24387276 -32.625 127.3125 C-33.007771 126.7362085 -33.39054199 126.15991699 -33.78491211 125.56616211 C-35.52951928 122.85554966 -36.375 121.48268659 -36.375 118.1875 C-37.035 118.1875 -37.695 118.1875 -38.375 118.1875 C-39.035 116.8675 -39.695 115.5475 -40.375 114.1875 C-49.77518442 126.267377 -49.77518442 126.267377 -55.375 140.1875 C-56.035 140.1875 -56.695 140.1875 -57.375 140.1875 C-57.4575 140.70570313 -57.54 141.22390625 -57.625 141.7578125 C-60.14348559 149.91665645 -66.59097709 159.18789336 -74.0625 163.390625 C-80.3403699 165.55394503 -85.88199145 163.63352994 -91.6875 160.9375 C-95.63625054 158.927227 -98.61344197 156.68062866 -101.375 153.1875 C-101.74271245 150.3487599 -101.86130804 148.16929849 -101.6875 145.375 C-101.66494141 144.68212891 -101.64238281 143.98925781 -101.61914062 143.27539062 C-101.56062661 141.57848427 -101.4709548 139.88270139 -101.375 138.1875 C-100.715 138.1875 -100.055 138.1875 -99.375 138.1875 C-99.2925 137.548125 -99.21 136.90875 -99.125 136.25 C-98.07979628 131.98208483 -96.23408174 128.15642333 -94.375 124.1875 C-93.715 124.1875 -93.055 124.1875 -92.375 124.1875 C-92.29894531 123.65640625 -92.22289062 123.1253125 -92.14453125 122.578125 C-91.07450082 119.25396955 -89.12907443 116.70174996 -87.0625 113.9375 C-86.67126953 113.38320312 -86.28003906 112.82890625 -85.87695312 112.2578125 C-84.69921875 110.671875 -84.69921875 110.671875 -82.375 108.1875 C-81.055 108.1875 -79.735 108.1875 -78.375 108.1875 C-78.148125 107.341875 -77.92125 106.49625 -77.6875 105.625 C-76.37783297 102.19491968 -74.83885188 99.87174915 -72.66796875 96.96875 C-70.64259512 94.17850717 -69.01006647 91.21756366 -67.375 88.1875 C-66.98828125 87.51332031 -66.6015625 86.83914062 -66.203125 86.14453125 C-65.82671875 85.45746094 -65.4503125 84.77039063 -65.0625 84.0625 C-64.71574219 83.44117188 -64.36898437 82.81984375 -64.01171875 82.1796875 C-63.13863567 79.44795516 -63.50971497 77.91169881 -64.375 75.1875 C-65.87784652 72.63683705 -65.87784652 72.63683705 -67.75 70.1875 C-74.375 61.1662234 -74.375 61.1662234 -74.375 58.1875 C-75.035 58.1875 -75.695 58.1875 -76.375 58.1875 C-76.9525 57.15625 -77.53 56.125 -78.125 55.0625 C-82.51712605 47.39540888 -87.62544516 39.95344897 -93.08984375 33.0078125 C-94.375 31.1875 -94.375 31.1875 -94.375 29.1875 C-95.035 29.1875 -95.695 29.1875 -96.375 29.1875 C-96.82875 28.218125 -97.2825 27.24875 -97.75 26.25 C-99.03286221 23.11670418 -99.03286221 23.11670418 -101.375 22.1875 C-101.84839301 16.81983414 -101.84839301 16.81983414 -99.7578125 14.02734375 C-92.12992752 7.60038876 -83.81766843 1.56172212 -73.375 2.1875 C-60.11777186 5.9088272 -51.73861712 19.91095168 -45.20605469 31.20922852 C-44.68640137 32.14400024 -44.68640137 32.14400024 -44.15625 33.09765625 C-42.46293018 36.03497199 -41.2343276 37.45147967 -38.375 39.1875 C-37.385 36.2175 -37.385 36.2175 -36.375 33.1875 C-35.715 33.1875 -35.055 33.1875 -34.375 33.1875 C-34.106875 32.48625 -33.83875 31.785 -33.5625 31.0625 C-31.43467662 25.9109276 -28.9404207 21.46911658 -25.6484375 17 C-23.66725812 14.18016187 -22.03735628 11.2043688 -20.375 8.1875 C-19.715 8.1875 -19.055 8.1875 -18.375 8.1875 C-18.1275 7.589375 -17.88 6.99125 -17.625 6.375 C-16.15977848 3.81086233 -14.90122797 2.70323678 -12.375 1.1875 C-8.24515671 0.1049917 -4.25684824 0.02158645 0 0 Z " fill="#FEFEFE" transform="translate(1008.375,59.8125)"/>
<path d="M0 0 C5.0625 5.52272727 5.0625 5.52272727 5.0625 8.25 C5.7225 8.25 6.3825 8.25 7.0625 8.25 C8.57188632 11.26877265 8.20616437 14.38079585 8.1875 17.6875 C8.19136719 18.36876953 8.19523438 19.05003906 8.19921875 19.75195312 C8.1931374 22.85648046 8.05140312 25.28329065 7.0625 28.25 C6.4025 28.25 5.7425 28.25 5.0625 28.25 C4.98257813 28.78496094 4.90265625 29.31992188 4.8203125 29.87109375 C3.773798 33.15628616 1.94414515 35.51340007 -0.0625 38.3125 C-0.8792007 39.46631951 -1.69428 40.62128823 -2.5078125 41.77734375 C-2.91547852 42.35597168 -3.32314453 42.93459961 -3.74316406 43.53076172 C-9.10202702 50.99299517 -9.10202702 50.99299517 -12.9375 59.25 C-13.5975 59.25 -14.2575 59.25 -14.9375 59.25 C-15.03289062 59.94480469 -15.12828125 60.63960937 -15.2265625 61.35546875 C-16.07860983 64.82451859 -17.55010623 67.45786119 -19.3125 70.5625 C-21.59605552 74.6988389 -23.61213868 78.65178008 -25.13671875 83.11328125 C-26.20588891 85.96614017 -27.51236128 88.6825225 -28.8125 91.4375 C-31.39833854 96.96120956 -33.64289387 102.54967567 -35.78515625 108.2578125 C-36.78075534 110.84299522 -37.84840335 113.35672249 -39 115.875 C-42.01216108 122.51875851 -44.44372737 129.32612078 -46.3125 136.375 C-48.79589903 144.86444561 -54.26603043 151.61663478 -61.1875 157 C-64.37210518 158.44754781 -67.09569147 158.77888022 -70.55859375 159.0390625 C-73.05554473 159.19903024 -73.05554473 159.19903024 -75.88671875 159.98046875 C-79.83498708 160.32929143 -81.18196448 159.28305139 -84.3125 156.9375 C-85.18648438 156.30199219 -86.06046875 155.66648438 -86.9609375 155.01171875 C-87.93933594 154.13966797 -87.93933594 154.13966797 -88.9375 153.25 C-88.9375 152.59 -88.9375 151.93 -88.9375 151.25 C-89.906875 150.981875 -90.87625 150.71375 -91.875 150.4375 C-93.3909375 149.8496875 -93.3909375 149.8496875 -94.9375 149.25 C-95.2675 148.26 -95.5975 147.27 -95.9375 146.25 C-96.5975 146.25 -97.2575 146.25 -97.9375 146.25 C-98.7308855 144.20900065 -99.5221303 142.1671691 -100.3125 140.125 C-100.75335938 138.98804688 -101.19421875 137.85109375 -101.6484375 136.6796875 C-103.57780924 131.54638936 -105.14679362 126.53170325 -106.30078125 121.16796875 C-107.16925021 117.18793002 -108.08017532 113.2184454 -109 109.25 C-109.17450684 108.48324951 -109.34901367 107.71649902 -109.52880859 106.92651367 C-110.11803583 103.28916482 -110.11803583 103.28916482 -111.9375 100.25 C-112.06125 99.26 -112.185 98.27 -112.3125 97.25 C-112.78783124 93.62285697 -113.83878078 90.4174614 -115.05078125 86.9765625 C-116.5559139 82.34844535 -117.68811172 77.61631843 -118.875 72.8984375 C-119.95625984 69.18558203 -121.40296131 65.79531353 -122.9375 62.25 C-123.77206798 59.38279534 -124.48328809 56.50595272 -125.19140625 53.60546875 C-125.78865954 51.09178833 -125.78865954 51.09178833 -127.9375 49.25 C-128.68359375 47.296875 -128.68359375 47.296875 -129.375 45 C-131.13792643 39.38858272 -131.13792643 39.38858272 -133.9375 34.25 C-137.43854532 32.93998504 -137.43854532 32.93998504 -140.9375 32.25 C-144.1721933 29.0153067 -143.48396017 24.77864671 -143.51635742 20.42871094 C-143.38390782 15.88144508 -142.84613808 13.04036659 -139.75 9.5 C-137.8125 7.7265625 -137.8125 7.7265625 -135.9375 6.25 C-135.050625 5.46625 -134.16375 4.6825 -133.25 3.875 C-128.35786666 0.43728468 -124.52452399 -0.11475597 -118.5625 -0.125 C-117.82 -0.14949219 -117.0775 -0.17398438 -116.3125 -0.19921875 C-111.02800325 -0.22722845 -108.16257267 0.83910192 -103.9375 4.25 C-103.01130859 4.97509766 -103.01130859 4.97509766 -102.06640625 5.71484375 C-93.49141148 13.77662188 -89.55796439 24.64315781 -86.1171875 35.62890625 C-85.04163329 38.93035908 -83.81414077 42.06491499 -82.4375 45.25 C-77.59469238 56.57518646 -74.2305207 68.40087747 -70.9375 80.25 C-70.27428389 82.58433469 -69.60611712 84.91720372 -68.9375 87.25 C-66.30140508 83.21372411 -64.61536303 79.01421603 -63 74.5 C-60.85232973 68.64037237 -58.57957141 62.90714113 -55.9375 57.25 C-52.37389702 49.5364875 -52.37389702 49.5364875 -49.125 41.6875 C-47.16440317 36.72598966 -45.06946479 31.82726914 -42.9375 26.9375 C-42.60516357 26.16011475 -42.27282715 25.38272949 -41.93041992 24.58178711 C-40.04068904 20.28517007 -38.07042024 16.80490541 -34.9375 13.25 C-34.26847656 12.35474609 -34.26847656 12.35474609 -33.5859375 11.44140625 C-26.47542198 2.34605358 -11.24851544 -6.70124324 0 0 Z " fill="#FEFEFE" transform="translate(434.9375,62.75)"/>
<path d="M0 0 C10.15604576 6.99943694 13.24075329 16.00775071 15.8125 27.5625 C16.5948192 32.98826222 15.90595874 37.95604119 12.8125 42.5625 C9.15448056 46.69054428 5.40963949 50.49774034 0.8125 53.5625 C-0.1775 53.5625 -1.1675 53.5625 -2.1875 53.5625 C-2.1875 54.2225 -2.1875 54.8825 -2.1875 55.5625 C-21.11454568 65.84498154 -42.53269732 72.89167181 -64.1875 72.5625 C-65.1775 72.2325 -66.1675 71.9025 -67.1875 71.5625 C-65.41438783 92.09794705 -65.41438783 92.09794705 -54.58203125 109.23828125 C-48.23507088 114.21216852 -39.79392984 113.44050957 -32.1875 112.5625 C-27.03770903 111.6476991 -22.12736859 110.25931021 -17.1875 108.5625 C-16.08390137 108.18448242 -16.08390137 108.18448242 -14.95800781 107.79882812 C-4.50079429 104.13594863 5.16345977 99.97123849 13.84375 92.91015625 C17.10360149 90.67871029 19.8991031 90.75185791 23.8125 90.5625 C24.4725 91.2225 25.1325 91.8825 25.8125 92.5625 C25.52823651 106.4914112 12.56332718 119.19974899 3.26953125 128.30859375 C-1.64371059 132.81565343 -6.22502795 136.3325761 -12.25 139.25 C-13.1481543 139.69182617 -13.1481543 139.69182617 -14.06445312 140.14257812 C-19.85527792 142.96505023 -25.17289986 144.90786177 -31.5 146.1875 C-32.75425781 146.44789063 -34.00851562 146.70828125 -35.30078125 146.9765625 C-50.09929204 149.20749377 -64.6699403 145.50750452 -77.1875 137.5625 C-80.77271122 134.79663629 -84.18400254 131.96046602 -87.1875 128.5625 C-87.1875 127.9025 -87.1875 127.2425 -87.1875 126.5625 C-88.0846875 126.19125 -88.0846875 126.19125 -89 125.8125 C-91.52336869 124.37057503 -92.68780076 123.03700374 -94.1875 120.5625 C-94.1875 119.5725 -94.1875 118.5825 -94.1875 117.5625 C-94.8475 117.5625 -95.5075 117.5625 -96.1875 117.5625 C-108.34636994 98.1780721 -107.87972799 70.14555378 -103.1875 48.5625 C-102.53807996 46.08522117 -101.76037185 43.78886397 -100.875 41.375 C-100.48699219 40.28832031 -100.09898437 39.20164063 -99.69921875 38.08203125 C-96.23864455 30.02524222 -92.03161171 23.73697935 -85.9375 17.4375 C-85.27145752 16.74027832 -84.60541504 16.04305664 -83.91918945 15.32470703 C-79.33155569 10.58710687 -74.71378339 6.19848458 -69.1875 2.5625 C-68.42566406 2.046875 -67.66382813 1.53125 -66.87890625 1 C-64.36816535 -0.60687418 -61.82045367 -2.04042254 -59.1875 -3.4375 C-58.30320312 -3.92734375 -57.41890625 -4.4171875 -56.5078125 -4.921875 C-38.91126677 -13.2300584 -16.27573678 -9.71363601 0 0 Z M-46.1875 26.5625 C-46.76886719 26.96339844 -47.35023438 27.36429688 -47.94921875 27.77734375 C-53.43863294 32.03318172 -57.51102739 37.71834095 -61.1875 43.5625 C-61.1875 44.2225 -61.1875 44.8825 -61.1875 45.5625 C-48.92250931 43.61567608 -32.26931487 39.64431487 -23.1875 30.5625 C-22.90099941 27.84074441 -22.73442242 26.20169025 -24.34765625 23.92578125 C-30.54006324 19.33735229 -40.445744 22.57204212 -46.1875 26.5625 Z " fill="#FEFEFE" transform="translate(557.1875,71.4375)"/>
<path d="M0 0 C0.919021 0.01015137 1.83804199 0.02030273 2.78491211 0.03076172 C17.26046853 0.36041955 30.10777578 4.79503763 41.00390625 14.56640625 C44.92731577 18.94360771 46.46028015 23.62013524 47.8125 29.25 C47.98974609 29.93191406 48.16699219 30.61382812 48.34960938 31.31640625 C49.87032577 37.4814727 50.67370057 43.51852922 47.87890625 49.47265625 C44.50134551 54.59686833 39.70589364 58.98773758 34.625 62.375 C33.635 62.375 32.645 62.375 31.625 62.375 C31.625 63.035 31.625 63.695 31.625 64.375 C30.046924 65.21824672 28.4622958 66.04923918 26.875 66.875 C25.99328125 67.3390625 25.1115625 67.803125 24.203125 68.28125 C21.625 69.375 21.625 69.375 17.625 69.375 C17.625 70.035 17.625 70.695 17.625 71.375 C12.66425522 72.87743865 7.70074441 74.36920839 2.73046875 75.83984375 C-0.02181422 76.65674951 -2.73615243 77.50027905 -5.44921875 78.44140625 C-14.45028783 81.44176261 -24.00755091 80.62271903 -33.375 80.375 C-31.46370968 100.85428754 -31.46370968 100.85428754 -20.8046875 118.046875 C-14.80445637 122.83629715 -6.86814069 122.18979075 0.40576172 121.63183594 C8.91114865 120.64749413 16.81711715 117.79998565 24.625 114.375 C26.24794463 113.74468205 27.87275126 113.11912158 29.5 112.5 C35.75459647 110.0000625 41.75339898 107.21182687 46.75 102.625 C50.16080971 99.95567066 52.32750431 99.45608482 56.625 99.375 C57.615 100.035 58.605 100.695 59.625 101.375 C60.22096219 105.12104804 59.89771375 106.92047709 57.9375 110.1875 C57.174375 111.239375 56.41125 112.29125 55.625 113.375 C54.92984758 114.7461471 54.24303682 116.12154039 53.5625 117.5 C49.98696214 124.00594809 44.80166186 129.1376809 39.625 134.375 C38.74457031 135.27992188 37.86414063 136.18484375 36.95703125 137.1171875 C30.16915936 143.71455782 23.23623693 147.63283284 14.625 151.375 C13.84898437 151.725625 13.07296875 152.07625 12.2734375 152.4375 C5.31387108 154.90106334 -1.39683607 155.71301229 -8.75 155.625 C-9.58072021 155.61750732 -10.41144043 155.61001465 -11.26733398 155.60229492 C-21.89758708 155.41663629 -30.07955679 153.65292115 -39.375 148.375 C-40.09429688 147.97410156 -40.81359375 147.57320312 -41.5546875 147.16015625 C-43.17085294 146.24822354 -44.77461747 145.31435496 -46.375 144.375 C-46.375 143.715 -46.375 143.055 -46.375 142.375 C-47.035 142.375 -47.695 142.375 -48.375 142.375 C-48.375 141.715 -48.375 141.055 -48.375 140.375 C-49.035 140.375 -49.695 140.375 -50.375 140.375 C-50.375 139.715 -50.375 139.055 -50.375 138.375 C-51.365 138.045 -52.355 137.715 -53.375 137.375 C-53.375 136.715 -53.375 136.055 -53.375 135.375 C-54.035 135.375 -54.695 135.375 -55.375 135.375 C-55.375 134.715 -55.375 134.055 -55.375 133.375 C-56.035 133.375 -56.695 133.375 -57.375 133.375 C-60.375 128.99038462 -60.375 128.99038462 -60.375 126.375 C-61.035 126.375 -61.695 126.375 -62.375 126.375 C-63.1683855 124.33400065 -63.9596303 122.2921691 -64.75 120.25 C-65.19085937 119.11304688 -65.63171875 117.97609375 -66.0859375 116.8046875 C-72.93307763 98.58714496 -73.78090001 77.36498674 -69.375 58.375 C-69.19195313 57.54871094 -69.00890625 56.72242188 -68.8203125 55.87109375 C-66.82980311 48.21623356 -63.03677022 41.33737954 -59.375 34.375 C-58.715 34.375 -58.055 34.375 -57.375 34.375 C-57.14167969 33.82972656 -56.90835938 33.28445312 -56.66796875 32.72265625 C-49.57746239 19.84835316 -34.1062314 8.17017546 -20.375 3.375 C-19.63854248 3.11444824 -18.90208496 2.85389648 -18.14331055 2.58544922 C-11.98425886 0.56631572 -6.46330472 -0.10406357 0 0 Z M-21.375 44.375 C-21.375 45.035 -21.375 45.695 -21.375 46.375 C-22.035 46.375 -22.695 46.375 -23.375 46.375 C-24.695 49.015 -26.015 51.655 -27.375 54.375 C-14.38914877 53.16701384 0.76842675 48.13639844 10.625 39.375 C11.54265886 36.78578227 11.54265886 36.78578227 10.625 34.375 C7.62041199 31.53467192 5.46704919 30.94334578 1.375 30.9375 C-8.82311765 31.28915923 -14.97575572 36.70183208 -21.375 44.375 Z " fill="#FEFEFE" transform="translate(836.375,62.625)"/>
</svg>
